<svg id="Layer_1" data-name="Layer 1" xmlns="http://www.w3.org/2000/svg" width="48.5629" height="63" viewBox="0 0 48.5629 63"><title>logo1</title><path d="M35.8832,34.0853v-.0021a1.1961,1.1961,0,0,0-.5306.11,20.54,20.54,0,0,0-2.0088,1.8722c-1.5254,1.5274-1.7732,1.8355-1.7732,2.1681a1.0742,1.0742,0,0,0,1.0426,1.0591c.4214,0,.5948-.1357,2.2937-1.8233a15.1872,15.1872,0,0,0,1.91-2.1191,1.3967,1.3967,0,0,0-.1112-.64A.9257.9257,0,0,0,35.8832,34.0853Z" transform="translate(-7.2855 -0.4783)"/><path d="M47.4429,21.086V17.8711c0-1.76-.0623-3.7067-.1367-4.3107C46.5369,7.34,41.4784,2.1416,34.8813.8A24.6142,24.6142,0,0,0,30.9736.4785c-.4234-.0021-.7978.0092-1.0774.0367a23.0193,23.0193,0,0,0-3.8311.8744,15.2488,15.2488,0,0,0-10.23,12.17c-.0745.6039-.1368,2.5373-.1368,4.2993v3.19L14.36,22.4164A23.8082,23.8082,0,0,0,7.4523,36.6553,24.2545,24.2545,0,0,0,21.1791,61.1062a23.9109,23.9109,0,0,0,20.87-.05A24.595,24.595,0,0,0,54.6348,46.7928a23.8612,23.8612,0,0,0-6.3124-24.8569ZM39.0858,45.23a9.8032,9.8032,0,0,1-11.7923,2.5863A9.4647,9.4647,0,0,1,22.6309,36.04a8.1263,8.1263,0,0,1,2.2445-3.4485,8.6739,8.6739,0,0,1,4.7117-2.5252,9.9911,9.9911,0,0,1,1.93-.1337l.002-.0019a12.3443,12.3443,0,0,1,2.5956.2448,13.4279,13.4279,0,0,1,1.92.7784,6.6492,6.6492,0,0,1,2.2323,1.6253,8.4587,8.4587,0,0,1,2.3059,3.6465A9.6946,9.6946,0,0,1,39.0858,45.23Zm2.0324-28.19-1.76-.5918a23.5845,23.5845,0,0,0-15.5633,0l-1.7732.5918V15.9173a9.69,9.69,0,0,1,.62-3.7444,9.0723,9.0723,0,0,1,7.2542-5.3208,8.9386,8.9386,0,0,1,1.3008-.08l.005-.0052a14.9388,14.9388,0,0,1,3.1629.3133,9.3473,9.3473,0,0,1,5.1207,3.2772,8.8344,8.8344,0,0,1,1.6325,5.58Z" transform="translate(-7.2855 -0.4783)"/></svg>